<?xml version="1.0" encoding="UTF-8" standalone="no"?>
<!-- Created with Inkscape (http://www.inkscape.org/) -->

<svg
   width="10mm"
   height="10mm"
   viewBox="0 0 10 10"
   version="1.1"
   id="svg1"
   inkscape:version="1.4.2 (f4327f4, 2025-05-13)"
   sodipodi:docname="Nuke13.2.svg"
   xml:space="preserve"
   xmlns:inkscape="http://www.inkscape.org/namespaces/inkscape"
   xmlns:sodipodi="http://sodipodi.sourceforge.net/DTD/sodipodi-0.dtd"
   xmlns="http://www.w3.org/2000/svg"
   xmlns:svg="http://www.w3.org/2000/svg"><sodipodi:namedview
     id="namedview1"
     pagecolor="#ffffff"
     bordercolor="#000000"
     borderopacity="0.25"
     inkscape:showpageshadow="2"
     inkscape:pageopacity="0.0"
     inkscape:pagecheckerboard="0"
     inkscape:deskcolor="#d1d1d1"
     inkscape:document-units="mm"
     showguides="true"
     inkscape:zoom="19.190878"
     inkscape:cx="15.736643"
     inkscape:cy="22.250154"
     inkscape:window-width="2068"
     inkscape:window-height="1378"
     inkscape:window-x="2612"
     inkscape:window-y="396"
     inkscape:window-maximized="0"
     inkscape:current-layer="svg1"><sodipodi:guide
       position="6.2504236,3.225212"
       orientation="0,-1"
       id="guide3"
       inkscape:locked="false" /><sodipodi:guide
       position="-1.704096,8.1613698"
       orientation="0,-1"
       id="guide4"
       inkscape:locked="false" /></sodipodi:namedview><defs
     id="defs1"><inkscape:path-effect
       effect="bspline"
       id="path-effect7"
       is_visible="true"
       lpeversion="1.3"
       weight="33.333333"
       steps="2"
       helper_size="0"
       apply_no_weight="true"
       apply_with_weight="true"
       only_selected="false"
       uniform="false" /><inkscape:path-effect
       effect="bspline"
       id="path-effect6"
       is_visible="true"
       lpeversion="1.3"
       weight="33.333333"
       steps="2"
       helper_size="0"
       apply_no_weight="true"
       apply_with_weight="true"
       only_selected="false"
       uniform="false" /></defs><g
     inkscape:groupmode="layer"
     id="layer3"
     inkscape:label="Nuke"
     style="display:inline"
     sodipodi:insensitive="true"><ellipse
       style="display:inline;fill:#262626;fill-opacity:1;fill-rule:evenodd;stroke:#fcad3c;stroke-width:0.382514;stroke-linejoin:round;stroke-dasharray:none;stroke-opacity:1"
       id="path5"
       cx="4.9777694"
       cy="4.9928255"
       rx="4.4160714"
       ry="4.5061965" /><path
       style="fill:#fcad3c;fill-opacity:1;fill-rule:evenodd;stroke:none;stroke-width:0.1;stroke-linejoin:round;stroke-dasharray:none;stroke-opacity:1"
       d="M 5.9096713,2.8196471 C 5.7263196,2.9371464 5.0663231,2.8775605 4.8281629,2.7552711 4.3940182,2.5323485 3.9346808,1.5334481 3.5406528,1.4420108 2.6320739,1.2311679 0.36390416,4.0204295 1.6995133,3.9269052 2.688921,3.8576232 3.9729885,3.8527487 4.3389092,4.0299062 4.7398365,4.2240119 5.5973003,5.0843879 5.742295,5.523418 5.9531522,6.1618732 5.5529385,8.0283708 5.845296,8.5233165 6.3550841,9.3863606 8.2284047,7.4602494 8.2915652,6.6306766 8.3246838,6.1956842 7.238762,5.5429523 7.0941809,5.1242896 6.9750951,4.7794534 6.8442156,4.3844318 7.1070564,4.0556563 7.3418741,3.7619337 8.2248616,4.0896043 8.574818,3.8754049 8.8475237,2.6311974 6.829369,1.1043759 6.0899235,1.2488843 5.8950614,1.2869658 6.1325941,2.676789 5.9096713,2.8196471 Z"
       id="path8"
       sodipodi:nodetypes="sssssssssscss" /><path
       style="fill:#262626;fill-opacity:1;fill-rule:evenodd;stroke:none;stroke-width:0.1;stroke-linejoin:round;stroke-dasharray:none;stroke-opacity:1"
       d="M 6.3345498,3.682279 C 6.1164996,3.4239341 5.6489426,3.1274826 5.3817924,3.3346511 5.1398324,3.5222852 5.2813509,4.0091267 5.471918,4.2487834 5.6974475,4.5324087 6.1763798,4.7819883 6.4504256,4.5449108 6.6847015,4.3422382 6.5343539,3.919006 6.3345498,3.682279 Z"
       id="path9"
       sodipodi:nodetypes="sssss" /></g></svg>
